<svg width="8" height="9" viewBox="0 0 8 9" fill="none" xmlns="http://www.w3.org/2000/svg">
<path fill-rule="evenodd" clip-rule="evenodd" d="M3.86691 8.27286L4.16738 7.93429C4.50834 7.54381 4.815 7.17334 5.08786 6.82096L5.3131 6.52381C6.25358 5.25667 6.72405 4.25096 6.72405 3.50762C6.72405 1.92096 5.445 0.634766 3.86691 0.634766C2.28881 0.634766 1.00977 1.92096 1.00977 3.50762C1.00977 4.25096 1.48024 5.25667 2.42072 6.52381L2.64596 6.82096C3.03521 7.31971 3.44247 7.80416 3.86691 8.27334V8.27286Z" stroke="black" stroke-width="0.8375" stroke-linecap="round" stroke-linejoin="round"/>
<path d="M3.86723 4.68271C4.52472 4.68271 5.05771 4.14972 5.05771 3.49223C5.05771 2.83475 4.52472 2.30176 3.86723 2.30176C3.20975 2.30176 2.67676 2.83475 2.67676 3.49223C2.67676 4.14972 3.20975 4.68271 3.86723 4.68271Z" stroke="black" stroke-width="0.8375" stroke-linecap="round" stroke-linejoin="round"/>
</svg>
