<svg width="11" height="11" viewBox="0 0 11 11" fill="none" xmlns="http://www.w3.org/2000/svg">
<g clip-path="url(#clip0_18_771)">
<path d="M5.26446 3.04443L3.85488 1.41735C3.69238 1.22985 3.39446 1.23068 3.20571 1.41985L2.04654 2.5811C1.70154 2.92651 1.60279 3.43943 1.80238 3.85068C2.99472 6.31942 4.98573 8.31322 7.45279 9.50901C7.86363 9.7086 8.37613 9.60985 8.72113 9.26443L9.89113 8.09235C10.0807 7.90276 10.0811 7.60318 9.89196 7.44068L8.25863 6.0386C8.08779 5.89193 7.82238 5.9111 7.65113 6.08276L7.08279 6.65193C7.0537 6.68242 7.0154 6.70253 6.97377 6.70915C6.93215 6.71577 6.8895 6.70855 6.85238 6.6886C5.92339 6.15364 5.15279 5.38203 4.61904 4.45235C4.59905 4.41516 4.59182 4.37244 4.59844 4.33075C4.60506 4.28905 4.62518 4.25068 4.65571 4.22151L5.22238 3.65443C5.39404 3.48193 5.41279 3.21526 5.26446 3.04401V3.04443Z" stroke="black" stroke-width="0.833333" stroke-linecap="round" stroke-linejoin="round"/>
</g>
<defs>
<clipPath id="clip0_18_771">
<rect width="10" height="10" fill="white" transform="translate(0.867188 0.444336)"/>
</clipPath>
</defs>
</svg>
