<svg width="42" height="42" viewBox="0 0 42 42" fill="none" xmlns="http://www.w3.org/2000/svg">
<rect width="42" height="42" fill="white"/>
<rect x="2.38281" y="2.38281" width="1.48936" height="1.48936" fill="black"/>
<rect x="3.87207" y="2.38281" width="1.48936" height="1.48936" fill="black"/>
<rect x="5.36133" y="2.38281" width="1.48936" height="1.48936" fill="black"/>
<rect x="6.85059" y="2.38281" width="1.48936" height="1.48936" fill="black"/>
<rect x="8.33984" y="2.38281" width="1.48936" height="1.48936" fill="black"/>
<rect x="9.83008" y="2.38281" width="1.48936" height="1.48936" fill="black"/>
<rect x="11.3193" y="2.38281" width="1.48936" height="1.48936" fill="black"/>
<rect x="14.2979" y="2.38281" width="1.48936" height="1.48936" fill="black"/>
<rect x="18.7656" y="2.38281" width="1.48936" height="1.48936" fill="black"/>
<rect x="20.2549" y="2.38281" width="1.48936" height="1.48936" fill="black"/>
<rect x="26.2129" y="2.38281" width="1.48936" height="1.48936" fill="black"/>
<rect x="29.1914" y="2.38281" width="1.48936" height="1.48936" fill="black"/>
<rect x="30.6807" y="2.38281" width="1.48936" height="1.48936" fill="black"/>
<rect x="32.1699" y="2.38281" width="1.48936" height="1.48936" fill="black"/>
<rect x="33.6592" y="2.38281" width="1.48936" height="1.48936" fill="black"/>
<rect x="35.1484" y="2.38281" width="1.48936" height="1.48936" fill="black"/>
<rect x="36.6377" y="2.38281" width="1.48936" height="1.48936" fill="black"/>
<rect x="38.1279" y="2.38281" width="1.48936" height="1.48936" fill="black"/>
<rect x="2.38281" y="3.87207" width="1.48936" height="1.48936" fill="black"/>
<rect x="11.3193" y="3.87207" width="1.48936" height="1.48936" fill="black"/>
<rect x="15.7871" y="3.87207" width="1.48936" height="1.48936" fill="black"/>
<rect x="17.2764" y="3.87207" width="1.48936" height="1.48936" fill="black"/>
<rect x="18.7656" y="3.87207" width="1.48936" height="1.48936" fill="black"/>
<rect x="20.2549" y="3.87207" width="1.48936" height="1.48936" fill="black"/>
<rect x="29.1914" y="3.87207" width="1.48936" height="1.48936" fill="black"/>
<rect x="38.1279" y="3.87207" width="1.48936" height="1.48936" fill="black"/>
<rect x="2.38281" y="5.36133" width="1.48936" height="1.48936" fill="black"/>
<rect x="5.36133" y="5.36133" width="1.48936" height="1.48936" fill="black"/>
<rect x="6.85059" y="5.36133" width="1.48936" height="1.48936" fill="black"/>
<rect x="8.33984" y="5.36133" width="1.48936" height="1.48936" fill="black"/>
<rect x="11.3193" y="5.36133" width="1.48936" height="1.48936" fill="black"/>
<rect x="14.2979" y="5.36133" width="1.48936" height="1.48936" fill="black"/>
<rect x="20.2549" y="5.36133" width="1.48936" height="1.48936" fill="black"/>
<rect x="21.7441" y="5.36133" width="1.48936" height="1.48936" fill="black"/>
<rect x="23.2334" y="5.36133" width="1.48936" height="1.48936" fill="black"/>
<rect x="29.1914" y="5.36133" width="1.48936" height="1.48936" fill="black"/>
<rect x="32.1699" y="5.36133" width="1.48936" height="1.48936" fill="black"/>
<rect x="33.6592" y="5.36133" width="1.48936" height="1.48936" fill="black"/>
<rect x="35.1484" y="5.36133" width="1.48936" height="1.48936" fill="black"/>
<rect x="38.1279" y="5.36133" width="1.48936" height="1.48936" fill="black"/>
<rect x="2.38281" y="6.85059" width="1.48936" height="1.48936" fill="black"/>
<rect x="5.36133" y="6.85059" width="1.48936" height="1.48936" fill="black"/>
<rect x="6.85059" y="6.85059" width="1.48936" height="1.48936" fill="black"/>
<rect x="8.33984" y="6.85059" width="1.48936" height="1.48936" fill="black"/>
<rect x="11.3193" y="6.85059" width="1.48936" height="1.48936" fill="black"/>
<rect x="14.2979" y="6.85059" width="1.48936" height="1.48936" fill="black"/>
<rect x="15.7871" y="6.85059" width="1.48936" height="1.48936" fill="black"/>
<rect x="18.7656" y="6.85059" width="1.48936" height="1.48936" fill="black"/>
<rect x="20.2549" y="6.85059" width="1.48936" height="1.48936" fill="black"/>
<rect x="21.7441" y="6.85059" width="1.48936" height="1.48936" fill="black"/>
<rect x="24.7236" y="6.85059" width="1.48936" height="1.48936" fill="black"/>
<rect x="29.1914" y="6.85059" width="1.48936" height="1.48936" fill="black"/>
<rect x="32.1699" y="6.85059" width="1.48936" height="1.48936" fill="black"/>
<rect x="33.6592" y="6.85059" width="1.48936" height="1.48936" fill="black"/>
<rect x="35.1484" y="6.85059" width="1.48936" height="1.48936" fill="black"/>
<rect x="38.1279" y="6.85059" width="1.48936" height="1.48936" fill="black"/>
<rect x="2.38281" y="8.33984" width="1.48936" height="1.48936" fill="black"/>
<rect x="5.36133" y="8.33984" width="1.48936" height="1.48936" fill="black"/>
<rect x="6.85059" y="8.33984" width="1.48936" height="1.48936" fill="black"/>
<rect x="8.33984" y="8.33984" width="1.48936" height="1.48936" fill="black"/>
<rect x="11.3193" y="8.33984" width="1.48936" height="1.48936" fill="black"/>
<rect x="14.2979" y="8.33984" width="1.48936" height="1.48936" fill="black"/>
<rect x="15.7871" y="8.33984" width="1.48936" height="1.48936" fill="black"/>
<rect x="20.2549" y="8.33984" width="1.48936" height="1.48936" fill="black"/>
<rect x="21.7441" y="8.33984" width="1.48936" height="1.48936" fill="black"/>
<rect x="23.2334" y="8.33984" width="1.48936" height="1.48936" fill="black"/>
<rect x="24.7236" y="8.33984" width="1.48936" height="1.48936" fill="black"/>
<rect x="26.2129" y="8.33984" width="1.48936" height="1.48936" fill="black"/>
<rect x="29.1914" y="8.33984" width="1.48936" height="1.48936" fill="black"/>
<rect x="32.1699" y="8.33984" width="1.48936" height="1.48936" fill="black"/>
<rect x="33.6592" y="8.33984" width="1.48936" height="1.48936" fill="black"/>
<rect x="35.1484" y="8.33984" width="1.48936" height="1.48936" fill="black"/>
<rect x="38.1279" y="8.33984" width="1.48936" height="1.48936" fill="black"/>
<rect x="2.38281" y="9.8291" width="1.48936" height="1.48936" fill="black"/>
<rect x="11.3193" y="9.8291" width="1.48936" height="1.48936" fill="black"/>
<rect x="15.7871" y="9.8291" width="1.48936" height="1.48936" fill="black"/>
<rect x="20.2549" y="9.8291" width="1.48936" height="1.48936" fill="black"/>
<rect x="21.7441" y="9.8291" width="1.48936" height="1.48936" fill="black"/>
<rect x="23.2334" y="9.8291" width="1.48936" height="1.48936" fill="black"/>
<rect x="29.1914" y="9.8291" width="1.48936" height="1.48936" fill="black"/>
<rect x="38.1279" y="9.8291" width="1.48936" height="1.48936" fill="black"/>
<rect x="2.38281" y="11.3193" width="1.48936" height="1.48936" fill="black"/>
<rect x="3.87207" y="11.3193" width="1.48936" height="1.48936" fill="black"/>
<rect x="5.36133" y="11.3193" width="1.48936" height="1.48936" fill="black"/>
<rect x="6.85059" y="11.3193" width="1.48936" height="1.48936" fill="black"/>
<rect x="8.33984" y="11.3193" width="1.48936" height="1.48936" fill="black"/>
<rect x="9.83008" y="11.3193" width="1.48936" height="1.48936" fill="black"/>
<rect x="11.3193" y="11.3193" width="1.48936" height="1.48936" fill="black"/>
<rect x="14.2979" y="11.3193" width="1.48936" height="1.48936" fill="black"/>
<rect x="17.2764" y="11.3193" width="1.48936" height="1.48936" fill="black"/>
<rect x="20.2549" y="11.3193" width="1.48936" height="1.48936" fill="black"/>
<rect x="23.2334" y="11.3193" width="1.48936" height="1.48936" fill="black"/>
<rect x="26.2129" y="11.3193" width="1.48936" height="1.48936" fill="black"/>
<rect x="29.1914" y="11.3193" width="1.48936" height="1.48936" fill="black"/>
<rect x="30.6807" y="11.3193" width="1.48936" height="1.48936" fill="black"/>
<rect x="32.1699" y="11.3193" width="1.48936" height="1.48936" fill="black"/>
<rect x="33.6592" y="11.3193" width="1.48936" height="1.48936" fill="black"/>
<rect x="35.1484" y="11.3193" width="1.48936" height="1.48936" fill="black"/>
<rect x="36.6377" y="11.3193" width="1.48936" height="1.48936" fill="black"/>
<rect x="38.1279" y="11.3193" width="1.48936" height="1.48936" fill="black"/>
<rect x="15.7871" y="12.8086" width="1.48936" height="1.48936" fill="black"/>
<rect x="20.2549" y="12.8086" width="1.48936" height="1.48936" fill="black"/>
<rect x="24.7236" y="12.8086" width="1.48936" height="1.48936" fill="black"/>
<rect x="26.2129" y="12.8086" width="1.48936" height="1.48936" fill="black"/>
<rect x="2.38281" y="14.2979" width="1.48936" height="1.48936" fill="black"/>
<rect x="3.87207" y="14.2979" width="1.48936" height="1.48936" fill="black"/>
<rect x="5.36133" y="14.2979" width="1.48936" height="1.48936" fill="black"/>
<rect x="6.85059" y="14.2979" width="1.48936" height="1.48936" fill="black"/>
<rect x="11.3193" y="14.2979" width="1.48936" height="1.48936" fill="black"/>
<rect x="14.2979" y="14.2979" width="1.48936" height="1.48936" fill="black"/>
<rect x="18.7656" y="14.2979" width="1.48936" height="1.48936" fill="black"/>
<rect x="23.2334" y="14.2979" width="1.48936" height="1.48936" fill="black"/>
<rect x="24.7236" y="14.2979" width="1.48936" height="1.48936" fill="black"/>
<rect x="26.2129" y="14.2979" width="1.48936" height="1.48936" fill="black"/>
<rect x="27.7021" y="14.2979" width="1.48936" height="1.48936" fill="black"/>
<rect x="32.1699" y="14.2979" width="1.48936" height="1.48936" fill="black"/>
<rect x="33.6592" y="14.2979" width="1.48936" height="1.48936" fill="black"/>
<rect x="35.1484" y="14.2979" width="1.48936" height="1.48936" fill="black"/>
<rect x="38.1279" y="14.2979" width="1.48936" height="1.48936" fill="black"/>
<rect x="5.36133" y="15.7871" width="1.48936" height="1.48936" fill="black"/>
<rect x="6.85059" y="15.7871" width="1.48936" height="1.48936" fill="black"/>
<rect x="8.33984" y="15.7871" width="1.48936" height="1.48936" fill="black"/>
<rect x="12.8086" y="15.7871" width="1.48936" height="1.48936" fill="black"/>
<rect x="14.2979" y="15.7871" width="1.48936" height="1.48936" fill="black"/>
<rect x="15.7871" y="15.7871" width="1.48936" height="1.48936" fill="black"/>
<rect x="18.7656" y="15.7871" width="1.48936" height="1.48936" fill="black"/>
<rect x="21.7441" y="15.7871" width="1.48936" height="1.48936" fill="black"/>
<rect x="26.2129" y="15.7871" width="1.48936" height="1.48936" fill="black"/>
<rect x="27.7021" y="15.7871" width="1.48936" height="1.48936" fill="black"/>
<rect x="30.6807" y="15.7871" width="1.48936" height="1.48936" fill="black"/>
<rect x="36.6377" y="15.7871" width="1.48936" height="1.48936" fill="black"/>
<rect x="2.38281" y="17.2764" width="1.48936" height="1.48936" fill="black"/>
<rect x="3.87207" y="17.2764" width="1.48936" height="1.48936" fill="black"/>
<rect x="9.83008" y="17.2764" width="1.48936" height="1.48936" fill="black"/>
<rect x="11.3193" y="17.2764" width="1.48936" height="1.48936" fill="black"/>
<rect x="14.2979" y="17.2764" width="1.48936" height="1.48936" fill="black"/>
<rect x="18.7656" y="17.2764" width="1.48936" height="1.48936" fill="black"/>
<rect x="20.2549" y="17.2764" width="1.48936" height="1.48936" fill="black"/>
<rect x="26.2129" y="17.2764" width="1.48936" height="1.48936" fill="black"/>
<rect x="30.6807" y="17.2764" width="1.48936" height="1.48936" fill="black"/>
<rect x="2.38281" y="18.7656" width="1.48936" height="1.48936" fill="black"/>
<rect x="3.87207" y="18.7656" width="1.48936" height="1.48936" fill="black"/>
<rect x="9.83008" y="18.7656" width="1.48936" height="1.48936" fill="black"/>
<rect x="18.7656" y="18.7656" width="1.48936" height="1.48936" fill="black"/>
<rect x="21.7441" y="18.7656" width="1.48936" height="1.48936" fill="black"/>
<rect x="23.2334" y="18.7656" width="1.48936" height="1.48936" fill="black"/>
<rect x="24.7236" y="18.7656" width="1.48936" height="1.48936" fill="black"/>
<rect x="26.2129" y="18.7656" width="1.48936" height="1.48936" fill="black"/>
<rect x="27.7021" y="18.7656" width="1.48936" height="1.48936" fill="black"/>
<rect x="29.1914" y="18.7656" width="1.48936" height="1.48936" fill="black"/>
<rect x="33.6592" y="18.7656" width="1.48936" height="1.48936" fill="black"/>
<rect x="35.1484" y="18.7656" width="1.48936" height="1.48936" fill="black"/>
<rect x="3.87207" y="20.2549" width="1.48936" height="1.48936" fill="black"/>
<rect x="5.36133" y="20.2549" width="1.48936" height="1.48936" fill="black"/>
<rect x="6.85059" y="20.2549" width="1.48936" height="1.48936" fill="black"/>
<rect x="8.33984" y="20.2549" width="1.48936" height="1.48936" fill="black"/>
<rect x="9.83008" y="20.2549" width="1.48936" height="1.48936" fill="black"/>
<rect x="11.3193" y="20.2549" width="1.48936" height="1.48936" fill="black"/>
<rect x="12.8086" y="20.2549" width="1.48936" height="1.48936" fill="black"/>
<rect x="14.2979" y="20.2549" width="1.48936" height="1.48936" fill="black"/>
<rect x="15.7871" y="20.2549" width="1.48936" height="1.48936" fill="black"/>
<rect x="20.2549" y="20.2549" width="1.48936" height="1.48936" fill="black"/>
<rect x="21.7441" y="20.2549" width="1.48936" height="1.48936" fill="black"/>
<rect x="23.2334" y="20.2549" width="1.48936" height="1.48936" fill="black"/>
<rect x="24.7236" y="20.2549" width="1.48936" height="1.48936" fill="black"/>
<rect x="27.7021" y="20.2549" width="1.48936" height="1.48936" fill="black"/>
<rect x="29.1914" y="20.2549" width="1.48936" height="1.48936" fill="black"/>
<rect x="30.6807" y="20.2549" width="1.48936" height="1.48936" fill="black"/>
<rect x="32.1699" y="20.2549" width="1.48936" height="1.48936" fill="black"/>
<rect x="35.1484" y="20.2549" width="1.48936" height="1.48936" fill="black"/>
<rect x="36.6377" y="20.2549" width="1.48936" height="1.48936" fill="black"/>
<rect x="38.1279" y="20.2549" width="1.48936" height="1.48936" fill="black"/>
<rect x="5.36133" y="21.7441" width="1.48936" height="1.48936" fill="black"/>
<rect x="6.85059" y="21.7441" width="1.48936" height="1.48936" fill="black"/>
<rect x="9.83008" y="21.7441" width="1.48936" height="1.48936" fill="black"/>
<rect x="17.2764" y="21.7441" width="1.48936" height="1.48936" fill="black"/>
<rect x="20.2549" y="21.7441" width="1.48936" height="1.48936" fill="black"/>
<rect x="21.7441" y="21.7441" width="1.48936" height="1.48936" fill="black"/>
<rect x="23.2334" y="21.7441" width="1.48936" height="1.48936" fill="black"/>
<rect x="24.7236" y="21.7441" width="1.48936" height="1.48936" fill="black"/>
<rect x="26.2129" y="21.7441" width="1.48936" height="1.48936" fill="black"/>
<rect x="29.1914" y="21.7441" width="1.48936" height="1.48936" fill="black"/>
<rect x="30.6807" y="21.7441" width="1.48936" height="1.48936" fill="black"/>
<rect x="32.1699" y="21.7441" width="1.48936" height="1.48936" fill="black"/>
<rect x="38.1279" y="21.7441" width="1.48936" height="1.48936" fill="black"/>
<rect x="3.87207" y="23.2344" width="1.48936" height="1.48936" fill="black"/>
<rect x="5.36133" y="23.2344" width="1.48936" height="1.48936" fill="black"/>
<rect x="8.33984" y="23.2344" width="1.48936" height="1.48936" fill="black"/>
<rect x="9.83008" y="23.2344" width="1.48936" height="1.48936" fill="black"/>
<rect x="11.3193" y="23.2344" width="1.48936" height="1.48936" fill="black"/>
<rect x="15.7871" y="23.2344" width="1.48936" height="1.48936" fill="black"/>
<rect x="23.2334" y="23.2344" width="1.48936" height="1.48936" fill="black"/>
<rect x="26.2129" y="23.2344" width="1.48936" height="1.48936" fill="black"/>
<rect x="27.7021" y="23.2344" width="1.48936" height="1.48936" fill="black"/>
<rect x="32.1699" y="23.2344" width="1.48936" height="1.48936" fill="black"/>
<rect x="35.1484" y="23.2344" width="1.48936" height="1.48936" fill="black"/>
<rect x="36.6377" y="23.2344" width="1.48936" height="1.48936" fill="black"/>
<rect x="2.38281" y="24.7236" width="1.48936" height="1.48936" fill="black"/>
<rect x="5.36133" y="24.7236" width="1.48936" height="1.48936" fill="black"/>
<rect x="6.85059" y="24.7236" width="1.48936" height="1.48936" fill="black"/>
<rect x="8.33984" y="24.7236" width="1.48936" height="1.48936" fill="black"/>
<rect x="9.83008" y="24.7236" width="1.48936" height="1.48936" fill="black"/>
<rect x="12.8086" y="24.7236" width="1.48936" height="1.48936" fill="black"/>
<rect x="14.2979" y="24.7236" width="1.48936" height="1.48936" fill="black"/>
<rect x="15.7871" y="24.7236" width="1.48936" height="1.48936" fill="black"/>
<rect x="17.2764" y="24.7236" width="1.48936" height="1.48936" fill="black"/>
<rect x="18.7656" y="24.7236" width="1.48936" height="1.48936" fill="black"/>
<rect x="23.2334" y="24.7236" width="1.48936" height="1.48936" fill="black"/>
<rect x="27.7021" y="24.7236" width="1.48936" height="1.48936" fill="black"/>
<rect x="30.6807" y="24.7236" width="1.48936" height="1.48936" fill="black"/>
<rect x="32.1699" y="24.7236" width="1.48936" height="1.48936" fill="black"/>
<rect x="38.1279" y="24.7236" width="1.48936" height="1.48936" fill="black"/>
<rect x="5.36133" y="26.2129" width="1.48936" height="1.48936" fill="black"/>
<rect x="9.83008" y="26.2129" width="1.48936" height="1.48936" fill="black"/>
<rect x="11.3193" y="26.2129" width="1.48936" height="1.48936" fill="black"/>
<rect x="14.2979" y="26.2129" width="1.48936" height="1.48936" fill="black"/>
<rect x="21.7441" y="26.2129" width="1.48936" height="1.48936" fill="black"/>
<rect x="26.2129" y="26.2129" width="1.48936" height="1.48936" fill="black"/>
<rect x="27.7021" y="26.2129" width="1.48936" height="1.48936" fill="black"/>
<rect x="29.1914" y="26.2129" width="1.48936" height="1.48936" fill="black"/>
<rect x="30.6807" y="26.2129" width="1.48936" height="1.48936" fill="black"/>
<rect x="32.1699" y="26.2129" width="1.48936" height="1.48936" fill="black"/>
<rect x="33.6592" y="26.2129" width="1.48936" height="1.48936" fill="black"/>
<rect x="35.1484" y="26.2129" width="1.48936" height="1.48936" fill="black"/>
<rect x="36.6377" y="26.2129" width="1.48936" height="1.48936" fill="black"/>
<rect x="38.1279" y="26.2129" width="1.48936" height="1.48936" fill="black"/>
<rect x="14.2979" y="27.7021" width="1.48936" height="1.48936" fill="black"/>
<rect x="15.7871" y="27.7021" width="1.48936" height="1.48936" fill="black"/>
<rect x="17.2764" y="27.7021" width="1.48936" height="1.48936" fill="black"/>
<rect x="18.7656" y="27.7021" width="1.48936" height="1.48936" fill="black"/>
<rect x="24.7236" y="27.7021" width="1.48936" height="1.48936" fill="black"/>
<rect x="26.2129" y="27.7021" width="1.48936" height="1.48936" fill="black"/>
<rect x="32.1699" y="27.7021" width="1.48936" height="1.48936" fill="black"/>
<rect x="35.1484" y="27.7021" width="1.48936" height="1.48936" fill="black"/>
<rect x="38.1279" y="27.7021" width="1.48936" height="1.48936" fill="black"/>
<rect x="2.38281" y="29.1914" width="1.48936" height="1.48936" fill="black"/>
<rect x="3.87207" y="29.1914" width="1.48936" height="1.48936" fill="black"/>
<rect x="5.36133" y="29.1914" width="1.48936" height="1.48936" fill="black"/>
<rect x="6.85059" y="29.1914" width="1.48936" height="1.48936" fill="black"/>
<rect x="8.33984" y="29.1914" width="1.48936" height="1.48936" fill="black"/>
<rect x="9.83008" y="29.1914" width="1.48936" height="1.48936" fill="black"/>
<rect x="11.3193" y="29.1914" width="1.48936" height="1.48936" fill="black"/>
<rect x="15.7871" y="29.1914" width="1.48936" height="1.48936" fill="black"/>
<rect x="21.7441" y="29.1914" width="1.48936" height="1.48936" fill="black"/>
<rect x="23.2334" y="29.1914" width="1.48936" height="1.48936" fill="black"/>
<rect x="26.2129" y="29.1914" width="1.48936" height="1.48936" fill="black"/>
<rect x="29.1914" y="29.1914" width="1.48936" height="1.48936" fill="black"/>
<rect x="32.1699" y="29.1914" width="1.48936" height="1.48936" fill="black"/>
<rect x="35.1484" y="29.1914" width="1.48936" height="1.48936" fill="black"/>
<rect x="36.6377" y="29.1914" width="1.48936" height="1.48936" fill="black"/>
<rect x="38.1279" y="29.1914" width="1.48936" height="1.48936" fill="black"/>
<rect x="2.38281" y="30.6807" width="1.48936" height="1.48936" fill="black"/>
<rect x="11.3193" y="30.6807" width="1.48936" height="1.48936" fill="black"/>
<rect x="15.7871" y="30.6807" width="1.48936" height="1.48936" fill="black"/>
<rect x="18.7656" y="30.6807" width="1.48936" height="1.48936" fill="black"/>
<rect x="23.2334" y="30.6807" width="1.48936" height="1.48936" fill="black"/>
<rect x="24.7236" y="30.6807" width="1.48936" height="1.48936" fill="black"/>
<rect x="26.2129" y="30.6807" width="1.48936" height="1.48936" fill="black"/>
<rect x="32.1699" y="30.6807" width="1.48936" height="1.48936" fill="black"/>
<rect x="36.6377" y="30.6807" width="1.48936" height="1.48936" fill="black"/>
<rect x="38.1279" y="30.6807" width="1.48936" height="1.48936" fill="black"/>
<rect x="2.38281" y="32.1699" width="1.48936" height="1.48936" fill="black"/>
<rect x="5.36133" y="32.1699" width="1.48936" height="1.48936" fill="black"/>
<rect x="6.85059" y="32.1699" width="1.48936" height="1.48936" fill="black"/>
<rect x="8.33984" y="32.1699" width="1.48936" height="1.48936" fill="black"/>
<rect x="11.3193" y="32.1699" width="1.48936" height="1.48936" fill="black"/>
<rect x="15.7871" y="32.1699" width="1.48936" height="1.48936" fill="black"/>
<rect x="18.7656" y="32.1699" width="1.48936" height="1.48936" fill="black"/>
<rect x="20.2549" y="32.1699" width="1.48936" height="1.48936" fill="black"/>
<rect x="23.2334" y="32.1699" width="1.48936" height="1.48936" fill="black"/>
<rect x="26.2129" y="32.1699" width="1.48936" height="1.48936" fill="black"/>
<rect x="27.7021" y="32.1699" width="1.48936" height="1.48936" fill="black"/>
<rect x="29.1914" y="32.1699" width="1.48936" height="1.48936" fill="black"/>
<rect x="30.6807" y="32.1699" width="1.48936" height="1.48936" fill="black"/>
<rect x="32.1699" y="32.1699" width="1.48936" height="1.48936" fill="black"/>
<rect x="33.6592" y="32.1699" width="1.48936" height="1.48936" fill="black"/>
<rect x="36.6377" y="32.1699" width="1.48936" height="1.48936" fill="black"/>
<rect x="38.1279" y="32.1699" width="1.48936" height="1.48936" fill="black"/>
<rect x="2.38281" y="33.6592" width="1.48936" height="1.48936" fill="black"/>
<rect x="5.36133" y="33.6592" width="1.48936" height="1.48936" fill="black"/>
<rect x="6.85059" y="33.6592" width="1.48936" height="1.48936" fill="black"/>
<rect x="8.33984" y="33.6592" width="1.48936" height="1.48936" fill="black"/>
<rect x="11.3193" y="33.6592" width="1.48936" height="1.48936" fill="black"/>
<rect x="14.2979" y="33.6592" width="1.48936" height="1.48936" fill="black"/>
<rect x="18.7656" y="33.6592" width="1.48936" height="1.48936" fill="black"/>
<rect x="21.7441" y="33.6592" width="1.48936" height="1.48936" fill="black"/>
<rect x="29.1914" y="33.6592" width="1.48936" height="1.48936" fill="black"/>
<rect x="32.1699" y="33.6592" width="1.48936" height="1.48936" fill="black"/>
<rect x="33.6592" y="33.6592" width="1.48936" height="1.48936" fill="black"/>
<rect x="35.1484" y="33.6592" width="1.48936" height="1.48936" fill="black"/>
<rect x="36.6377" y="33.6592" width="1.48936" height="1.48936" fill="black"/>
<rect x="38.1279" y="33.6592" width="1.48936" height="1.48936" fill="black"/>
<rect x="2.38281" y="35.1484" width="1.48936" height="1.48936" fill="black"/>
<rect x="5.36133" y="35.1484" width="1.48936" height="1.48936" fill="black"/>
<rect x="6.85059" y="35.1484" width="1.48936" height="1.48936" fill="black"/>
<rect x="8.33984" y="35.1484" width="1.48936" height="1.48936" fill="black"/>
<rect x="11.3193" y="35.1484" width="1.48936" height="1.48936" fill="black"/>
<rect x="14.2979" y="35.1484" width="1.48936" height="1.48936" fill="black"/>
<rect x="15.7871" y="35.1484" width="1.48936" height="1.48936" fill="black"/>
<rect x="17.2764" y="35.1484" width="1.48936" height="1.48936" fill="black"/>
<rect x="18.7656" y="35.1484" width="1.48936" height="1.48936" fill="black"/>
<rect x="20.2549" y="35.1484" width="1.48936" height="1.48936" fill="black"/>
<rect x="21.7441" y="35.1484" width="1.48936" height="1.48936" fill="black"/>
<rect x="23.2334" y="35.1484" width="1.48936" height="1.48936" fill="black"/>
<rect x="27.7021" y="35.1484" width="1.48936" height="1.48936" fill="black"/>
<rect x="29.1914" y="35.1484" width="1.48936" height="1.48936" fill="black"/>
<rect x="32.1699" y="35.1484" width="1.48936" height="1.48936" fill="black"/>
<rect x="35.1484" y="35.1484" width="1.48936" height="1.48936" fill="black"/>
<rect x="36.6377" y="35.1484" width="1.48936" height="1.48936" fill="black"/>
<rect x="2.38281" y="36.6377" width="1.48936" height="1.48936" fill="black"/>
<rect x="11.3193" y="36.6377" width="1.48936" height="1.48936" fill="black"/>
<rect x="14.2979" y="36.6377" width="1.48936" height="1.48936" fill="black"/>
<rect x="17.2764" y="36.6377" width="1.48936" height="1.48936" fill="black"/>
<rect x="20.2549" y="36.6377" width="1.48936" height="1.48936" fill="black"/>
<rect x="21.7441" y="36.6377" width="1.48936" height="1.48936" fill="black"/>
<rect x="23.2334" y="36.6377" width="1.48936" height="1.48936" fill="black"/>
<rect x="24.7236" y="36.6377" width="1.48936" height="1.48936" fill="black"/>
<rect x="27.7021" y="36.6377" width="1.48936" height="1.48936" fill="black"/>
<rect x="29.1914" y="36.6377" width="1.48936" height="1.48936" fill="black"/>
<rect x="32.1699" y="36.6377" width="1.48936" height="1.48936" fill="black"/>
<rect x="35.1484" y="36.6377" width="1.48936" height="1.48936" fill="black"/>
<rect x="2.38281" y="38.1279" width="1.48936" height="1.48936" fill="black"/>
<rect x="3.87207" y="38.1279" width="1.48936" height="1.48936" fill="black"/>
<rect x="5.36133" y="38.1279" width="1.48936" height="1.48936" fill="black"/>
<rect x="6.85059" y="38.1279" width="1.48936" height="1.48936" fill="black"/>
<rect x="8.33984" y="38.1279" width="1.48936" height="1.48936" fill="black"/>
<rect x="9.83008" y="38.1279" width="1.48936" height="1.48936" fill="black"/>
<rect x="11.3193" y="38.1279" width="1.48936" height="1.48936" fill="black"/>
<rect x="14.2979" y="38.1279" width="1.48936" height="1.48936" fill="black"/>
<rect x="20.2549" y="38.1279" width="1.48936" height="1.48936" fill="black"/>
<rect x="21.7441" y="38.1279" width="1.48936" height="1.48936" fill="black"/>
<rect x="23.2334" y="38.1279" width="1.48936" height="1.48936" fill="black"/>
<rect x="30.6807" y="38.1279" width="1.48936" height="1.48936" fill="black"/>
<rect x="32.1699" y="38.1279" width="1.48936" height="1.48936" fill="black"/>
<rect x="33.6592" y="38.1279" width="1.48936" height="1.48936" fill="black"/>
<rect x="35.1484" y="38.1279" width="1.48936" height="1.48936" fill="black"/>
<rect x="36.6377" y="38.1279" width="1.48936" height="1.48936" fill="black"/>
<rect x="38.1279" y="38.1279" width="1.48936" height="1.48936" fill="black"/>
</svg>
